{"title":"Aashiqui Not Allowed 2013 Punjabi Movie X264- DVDRip-AC3 5_1 - G","uid":9201323,"size":498344510,"categoryP":"video","categoryS":"movies","magnet":"?xt=urn:btih:ed0b0b25f3c71486126ce65da88374f16c705c30&amp;dn=Aashiqui+Not+Allowed+2013+Punjabi+Movie+X264-+DVDRip-AC3+5_1+-+G&amp;tr=udp%3A%2F%2Ftracker.openbittorrent.com%3A80&amp;tr=udp%3A%2F%2Fopen.demonii.com%3A1337&amp;tr=udp%3A%2F%2Ftracker.coppersurfer.tk%3A6969&amp;tr=udp%3A%2F%2Fexodus.desync.com%3A6969","seeders":1,"leechers":0,"uploader":"jatt13","files":3,"time":1384598592,"description":"[img]http://imageshack.us/a/img577/6841/j1g9.jpg[/img]\n[img]http://imageshack.us/a/img849/1908/bws5.jpg[/img\n[url]http://www.imdb.com/title/tt3013270/[/url]\nVideo\nID                             : 1\nFormat                         : AVC\nFormat/Info                    : Advanced Video Codec\nFormat profile                 : &lt;a class=&quot;__cf_email__&quot; href=&quot;/cdn-cgi/l/email-protection&quot; data-cfemail=&quot;e5ad8c828da5a9d6cbd5&quot;&gt;[email&amp;#160;protected]&lt;/a&gt;&lt;script cf-hash='f9e31' type=&quot;text/javascript&quot;&gt;\n/* &lt;![CDATA[ */!function(){try{var t=&quot;currentScript&quot;in document?document.currentScript:function(){for(var t=document.getElementsByTagName(&quot;script&quot;),e=t.length;e--;)if(t[e].getAttribute(&quot;cf-hash&quot;))return t[e]}();if(t&amp;&amp;t.previousSibling){var e,r,n,i,c=t.previousSibling,a=c.getAttribute(&quot;data-cfemail&quot;);if(a){for(e=&quot;&quot;,r=parseInt(a.substr(0,2),16),n=2;a.length-n;n+=2)i=parseInt(a.substr(n,2),16)^r,e+=String.fromCharCode(i);e=document.createTextNode(e),c.parentNode.replaceChild(e,c)}}}catch(u){}}();/* ]]&gt; */&lt;/script&gt;\nFormat settings, CABAC         : Yes\nFormat settings, ReFrames      : 4 frames\nCodec ID                       : V_MPEG4/ISO/AVC\nDuration                       : 2h 6mn\nBit rate                       : 448 Kbps\nWidth                          : 716 pixels\nHeight                         : 360 pixels\nDisplay aspect ratio           : 2.35:1\nOriginal display aspect ratio  : 2.35:1\nFrame rate mode                : Constant\nFrame rate                     : 29.970 fps\nColor space                    : YUV\nChroma subsampling             : 4:2:0\nBit depth                      : 8 bits\nScan type                      : Progressive\nBits/(Pixel*Frame)             : 0.058\nStream size                    : 408 MiB (86%)\nTitle                          : GOPI SAHI\nWriting library                : x264 core 107\nEncoding settings              : cabac=1 // deblock=1:0:0 / analyse=0x3:0x113 / \nLanguage                       : Panjabi\nDefault                        : Yes\nForced                         : No\n\nAudio\nID                             : 2\nFormat                         : MPEG Audio\nFormat version                 : Version 1\nFormat profile                 : Layer 3\nMode                           : Joint stereo\nMode extension                 : MS Stereo\nCodec ID                       : A_MPEG/L3\nCodec ID/Hint                  : MP3\nDuration                       : 2h 6mn\nBit rate mode                  : Constant\nBit rate                       : 64.0 Kbps\nChannel count                  : 2 channels\nSampling rate                  : 44.1 KHz\nCompression mode               : Lossy\nStream size                    : 57.9 MiB (12%)\nTitle                          : GOPI SAHI\nWriting library                : LAMEUUULAME3.98.4\nLanguage                       : Panjabi\nDefault                        : Yes\nForced                         : No\n[img]http://imageshack.us/a/img89/4331/4eor.jpg[/img]\n[img]http://imageshack.us/a/img543/5019/m8v1.png[/img]\n[img]http://imageshack.us/a/img822/7861/t509.png[/img]\n[img]http://imageshack.us/a/img29/1776/00u6.png[/img]\n[img]http://imageshack.us/a/img194/444/mg1r.png[/img]\n[img]http://imageshack.us/a/img59/6222/czja.png[/img]\n[img]http://imageshack.us/a/img12/5305/1d0k.png[/img]\n[img]http://imageshack.us/a/img29/6951/1qli.png[/img]\n[img]http://imageshack.us/a/img440/3298/a4qq.png[/img]\n[img]http://imageshack.us/a/img545/8462/u642.png[/img]","torrent":{"xt":"urn:btih:ed0b0b25f3c71486126ce65da88374f16c705c30","amp;dn":"Aashiqui+Not+Allowed+2013+Punjabi+Movie+X264-+DVDRip-AC3+5_1+-+G","amp;tr":["udp%3A%2F%2Ftracker.openbittorrent.com%3A80","udp%3A%2F%2Fopen.demonii.com%3A1337","udp%3A%2F%2Ftracker.coppersurfer.tk%3A6969","udp%3A%2F%2Fexodus.desync.com%3A6969"],"infoHash":"ed0b0b25f3c71486126ce65da88374f16c705c30","infoHashBuffer":{"type":"Buffer","data":[237,11,11,37,243,199,20,134,18,108,230,93,168,131,116,241,108,112,92,48]},"announce":[],"urlList":[]}}